<svg enable-background="new 0 0 1024 265.2" viewBox="0 0 1024 265.2" xmlns="http://www.w3.org/2000/svg"><path d="m159 153.3c13.9-7.4 24.2-17.2 30.8-29.3s9.9-25 9.9-38.7c0-14.9-3.5-28.4-10.4-40.7-7-12.2-17.5-22-31.5-29.3s-31.6-11-52.6-11h-105.2v256.5h62.6v-96.4h25.1l43.4 96.4h70.7l-50.3-104.1c2.6-1 5.1-2.1 7.5-3.4zm-96.4-96.9h38.8c11.7 0 20.4 2.9 26 8.6s8.4 13.4 8.4 22.9c0 10-2.8 17.9-8.4 23.6s-14.3 8.6-26 8.6h-38.8z"/><path d="m324 66.5c8.9-6.2 20.1-9.3 33.5-9.3s24.5 3.2 33.2 9.5c8.7 6.4 14.2 15.6 16.7 27.8h68.9c-4.6-30-17.5-53.3-38.5-69.8s-47.5-24.7-79.5-24.7c-26.1 0-48.5 5.7-67.2 17-18.7 11.4-33 27.1-43 47.1s-15 43.1-15 69.2c0 25.9 5 48.8 15 68.7s24.4 35.4 43 46.5c18.7 11.1 41.1 16.7 67.2 16.7 32 0 58.5-8 79.5-24s33.8-37.9 38.5-65.8h-68.9c-2.7 11-8.3 19.2-16.9 24.7s-19.5 8.2-33 8.2c-13.4 0-24.6-3.1-33.5-9.2s-15.7-14.8-20.3-26-7-24.5-7-39.9c0-15.6 2.3-29.1 7-40.5 4.7-11.2 11.4-20 20.3-26.2z"/><path d="m647.7 92.8v-18.6c0-6.2-1-11.2-3-14.9s-5.4-6.2-10.2-7.4v-.3c8.7-2.9 13-9.9 13-20.8v-6.5c0-8.2-2.4-14.4-7.1-18.3-4.7-4-12.2-6-22.4-6h-29.5v105.6h19.9v-45.3h6.9c4.6 0 7.8 1 9.7 2.9s2.8 5.3 2.8 10.1v19.3c0 3.9.1 6.6.4 8.1.2 1.5.7 3.1 1.4 4.8h20.3c-1-1.8-1.6-3.6-1.8-5.5-.3-1.8-.4-4.2-.4-7.2zm-20.1-58.7c0 4-1 6.9-3 8.6s-5 2.6-9 2.6h-7.2v-30.2h9.1c3.5 0 6.1.9 7.7 2.6s2.4 4.5 2.4 8.3z"/><path d="m675.9 105.6h54.3v-15.1h-34.4v-32.4h27.3v-15.1h-27.3v-27.9h34.4v-15.1h-54.3z"/><path d="m797.4 0-13.1 81.9h-.3l-13.1-81.9h-20.1l19.2 105.6h26.5l19.1-105.6z"/><path d="m839.7 0h19.9v105.6h-19.9z"/><path d="m883.7 15.1h20.8v90.5h19.9v-90.5h20.9v-15.1h-61.6z"/><path d="m977.8 84.9h22.6v-.3l3.6 21h19.9l-20.5-105.6h-27l-20.6 105.6h18.5zm11.1-66.5h.4l8.9 52.2h-17.9z"/><path d="m638.3 163.3c-5-4.5-12.3-6.8-21.8-6.8s-16.8 2.3-21.8 6.8-7.5 10.9-7.5 19.2v56.7c0 8.2 2.5 14.6 7.5 19.2 5 4.5 12.3 6.8 21.8 6.8s16.8-2.3 21.8-6.8 7.5-10.9 7.5-19.2v-14.9h-18.8v16.1c0 6.4-3.3 9.7-10 9.7-6.6 0-10-3.2-10-9.7v-59c0-6.5 3.3-9.8 10-9.8 6.6 0 10 3.3 10 9.8v12.2h18.8v-11.2c0-8.2-2.5-14.6-7.5-19.1z"/><path d="m696.9 158h-19.9v105.6h52.7v-15.1h-32.8z"/><path d="m758.4 158h19.9v105.6h-19.9z"/><path d="m857.1 221.2h-.4l-19.3-63.2h-25v105.6h17.7v-77.1h.4l23.9 77.1h20.4v-105.6h-17.7z"/><path d="m908.9 158h19.9v105.6h-19.9z"/><path d="m1012.7 163.3c-5-4.5-12.3-6.8-21.8-6.8s-16.8 2.3-21.8 6.8-7.5 10.9-7.5 19.2v56.7c0 8.2 2.5 14.6 7.5 19.2 5 4.5 12.3 6.8 21.8 6.8s16.8-2.3 21.8-6.8 7.5-10.9 7.5-19.2v-14.9h-18.8v16.1c0 6.4-3.3 9.7-10 9.7-6.6 0-10-3.2-10-9.7v-59c0-6.5 3.3-9.8 10-9.8 6.6 0 10 3.3 10 9.8v12.2h18.8v-11.2c0-8.2-2.5-14.6-7.5-19.1z"/><path d="m522.6 4.4h9.2v256.5h-9.2z"/></svg>